<svg width="36" height="36" viewBox="0 0 36 36" fill="none" xmlns="http://www.w3.org/2000/svg">
<g clip-path="url(#clip0_1_443)">
<path d="M17.9991 35.9983C27.9398 35.9983 35.9983 27.9398 35.9983 17.9991C35.9983 8.05849 27.9398 0 17.9991 0C8.05849 0 0 8.05849 0 17.9991C0 27.9398 8.05849 35.9983 17.9991 35.9983Z" fill="url(#paint0_radial_1_443)"/>
<path d="M13.5752 12.3707C13.5752 10.9074 12.3893 9.72119 10.9265 9.72119C9.46368 9.72119 8.27783 10.9074 8.27783 12.3707V15.0185C8.27783 16.4818 9.46368 17.6681 10.9265 17.6681C12.3893 17.6681 13.5752 16.4818 13.5752 15.0185V12.3707Z" fill="#602700"/>
<path d="M27.7204 12.3707C27.7204 10.9074 26.5346 9.72119 25.0718 9.72119C23.6089 9.72119 22.4231 10.9074 22.4231 12.3707V15.0185C22.4231 16.4818 23.6089 17.6681 25.0718 17.6681C26.5346 17.6681 27.7204 16.4818 27.7204 15.0185V12.3707Z" fill="#602700"/>
<path d="M24.0401 24.7445C23.7768 25.0744 22.0551 27.5283 18 27.5283C13.9448 27.5283 12.2232 25.0727 11.9599 24.7445C11.4286 24.0811 10.3509 24.7445 11.0039 25.858C11.2749 26.3203 13.5384 30.24 18 30.24C22.4616 30.24 24.7251 26.3203 24.996 25.858C25.6491 24.7445 24.5714 24.0811 24.0401 24.7445Z" fill="#602700"/>
</g>
<defs>
<radialGradient id="paint0_radial_1_443" cx="0" cy="0" r="1" gradientUnits="userSpaceOnUse" gradientTransform="translate(17.9991 17.9991) scale(17.9991)">
<stop stop-color="#FFFF00"/>
<stop offset="0.47" stop-color="#FFFC00"/>
<stop offset="0.67" stop-color="#FFF500"/>
<stop offset="0.82" stop-color="#FFE900"/>
<stop offset="0.95" stop-color="#FFD700"/>
<stop offset="1" stop-color="#FFCE00"/>
</radialGradient>
<clipPath id="clip0_1_443">
<rect width="36" height="36" fill="white"/>
</clipPath>
</defs>
</svg>
