<svg width="16" height="12" viewBox="0 0 16 12" fill="none" xmlns="http://www.w3.org/2000/svg">
<path d="M13.1174 0.401563C11.9566 0.486615 11.0755 1.45353 11.0755 2.5801C11.0755 2.73753 11.2073 2.86436 11.3692 2.86436H11.7831C11.9458 2.86436 12.0768 2.73678 12.0768 2.5801V2.56817C12.0768 1.96758 12.5301 1.4401 13.1467 1.37295C13.8767 1.29312 14.4979 1.84597 14.4979 2.53683V5.59052C14.4979 5.80017 14.323 5.96953 14.1064 5.96953H0.992549C0.720452 5.96953 0.5 6.18291 0.5 6.44627V8.02273C0.5 9.86255 2.04085 11.354 3.94168 11.354H12.2318C14.037 11.354 15.5 9.93716 15.5 8.1906V2.53683C15.5 1.30133 14.4132 0.306811 13.1166 0.401563H13.1174Z" fill="#A7A7A7"/>
<path d="M11.5765 3.99628C11.6613 3.99628 11.7307 3.92914 11.7307 3.84707V3.51656C11.7307 3.43449 11.6613 3.36734 11.5765 3.36734C11.4917 3.36734 11.4224 3.43449 11.4224 3.51656V3.84707C11.4224 3.92914 11.4917 3.99628 11.5765 3.99628Z" fill="#A7A7A7"/>
<path d="M11.4224 4.58521C11.4224 4.66728 11.4917 4.73443 11.5765 4.73443C11.6613 4.73443 11.7307 4.66728 11.7307 4.58521V4.2547C11.7307 4.17263 11.6613 4.10548 11.5765 4.10548C11.4917 4.10548 11.4224 4.17263 11.4224 4.2547V4.58521Z" fill="#A7A7A7"/>
<path d="M11.4224 5.32313C11.4224 5.40519 11.4917 5.47234 11.5765 5.47234C11.6613 5.47234 11.7307 5.40519 11.7307 5.32313V4.99261C11.7307 4.91055 11.6613 4.8434 11.5765 4.8434C11.4917 4.8434 11.4224 4.91055 11.4224 4.99261V5.32313Z" fill="#A7A7A7"/>
<path d="M10.8342 3.79811C10.8565 3.80855 10.8796 3.81378 10.902 3.81378C10.959 3.81378 11.0137 3.78319 11.0407 3.73022L11.1918 3.43328C11.2296 3.35942 11.198 3.26989 11.1217 3.23333C11.0454 3.19677 10.9529 3.22736 10.9151 3.30122L10.764 3.59816C10.7262 3.67202 10.7578 3.76155 10.8342 3.79811Z" fill="#A7A7A7"/>
<path d="M10.4977 4.46072C10.5193 4.47117 10.5432 4.47639 10.5656 4.47639C10.6226 4.47639 10.6773 4.4458 10.7043 4.39283L10.8554 4.09589C10.8932 4.02203 10.8615 3.9325 10.7852 3.89594C10.7089 3.85938 10.6164 3.88997 10.5787 3.96383L10.4276 4.26077C10.3898 4.33463 10.4214 4.42416 10.4977 4.46072Z" fill="#A7A7A7"/>
<path d="M10.1603 5.12265C10.1819 5.13309 10.2058 5.13831 10.2282 5.13831C10.2852 5.13831 10.3399 5.10773 10.3669 5.05475L10.518 4.75782C10.5557 4.68395 10.5241 4.59443 10.4478 4.55787C10.3715 4.52131 10.279 4.5519 10.2413 4.62576L10.0902 4.9227C10.0524 4.99656 10.084 5.08609 10.1603 5.12265Z" fill="#A7A7A7"/>
<path d="M12.2585 3.30214C12.2207 3.22828 12.1282 3.19769 12.0519 3.23424C11.9756 3.2708 11.944 3.36033 11.9818 3.43419L12.1329 3.73113C12.1598 3.7841 12.2146 3.81469 12.2716 3.81469C12.2947 3.81469 12.3179 3.80947 12.3394 3.79902C12.4157 3.76247 12.4474 3.67294 12.4096 3.59908L12.2585 3.30214Z" fill="#A7A7A7"/>
<path d="M12.5964 3.96383C12.5586 3.88997 12.4661 3.85938 12.3898 3.89594C12.3135 3.9325 12.2819 4.02203 12.3197 4.09589L12.4708 4.39283C12.4977 4.4458 12.5525 4.47639 12.6095 4.47639C12.6326 4.47639 12.6557 4.47117 12.6773 4.46072C12.7536 4.42416 12.7852 4.33463 12.7475 4.26077L12.5964 3.96383Z" fill="#A7A7A7"/>
<path d="M12.6556 4.75782L12.8067 5.05475C12.8337 5.10773 12.8884 5.13831 12.9454 5.13831C12.9686 5.13831 12.9917 5.13309 13.0133 5.12265C13.0896 5.08609 13.1212 4.99656 13.0834 4.9227L12.9323 4.62576C12.8946 4.5519 12.8021 4.52131 12.7258 4.55787C12.6494 4.59443 12.6178 4.68395 12.6556 4.75782Z" fill="#A7A7A7"/>
</svg>
