<svg width="53" height="48" viewBox="0 0 53 48" fill="none" xmlns="http://www.w3.org/2000/svg">
<path d="M0.177734 22.7269V42.3063C0.177734 45.4527 2.66489 48.0006 5.73055 48.0006H5.89454V15.2981L2.26403 18.2762C0.947567 19.3561 0.177734 20.9971 0.177734 22.7269Z" fill="black"/>
<path d="M24.9173 38.0053C24.9173 33.5359 23.3594 31.9697 18.458 31.9697H13.4199V48.0008H25.6188C25.0722 46.3691 24.9173 43.7417 24.9173 39.0385V38.0053Z" fill="black"/>
<path d="M50.7361 18.2763L29.9643 1.24475C27.9417 -0.414918 25.0628 -0.414918 23.0358 1.24475L13.2739 9.24858H21.1089C28.2242 9.24858 33.2668 12.8765 33.2668 19.7349C33.2668 25.0318 30.5428 27.5658 27.4361 28.786C31.1441 30.268 32.4924 33.2881 32.4924 38.1362V39.1648C32.4924 42.6431 32.6883 45.8315 32.998 48.0008H47.2741C50.3398 48.0008 52.8224 45.4528 52.8224 42.3064V22.727C52.8224 20.9972 52.0571 19.3562 50.7361 18.2763Z" fill="black"/>
</svg>
