<svg width="19" height="11" viewBox="0 0 19 11" fill="none" xmlns="http://www.w3.org/2000/svg">
<path d="M2.43043 1.91347C2.43043 1.27434 1.88529 0.754364 1.21522 0.754364C0.545144 0.754364 0 1.27434 0 1.91347V6.12018C0 6.12018 0 6.12018 0 6.12379V7.11679C0 7.11679 0 7.11679 0 7.1204V9.8358C0 10.4749 0.545144 10.9949 1.21522 10.9949C1.88529 10.9949 2.43043 10.4749 2.43043 9.8358V8.64781H6.93923V4.59276H2.43043V1.91347Z" fill="#A7A7A7"/>
<path d="M18.9246 6.12366C18.9246 5.27871 18.2053 4.59264 17.3157 4.59264H15.8052V8.64769H16.4942V9.83568C16.4942 10.4748 17.0393 10.9948 17.7094 10.9948C18.3795 10.9948 18.9246 10.4748 18.9246 9.83568V7.12388C18.9246 7.12388 18.9246 7.12027 18.9246 7.11666V6.12366Z" fill="#A7A7A7"/>
<path d="M7.69629 8.64769V8.81379C7.69629 9.43848 8.23008 9.94401 8.88501 9.94401H13.8594C14.5144 9.94401 15.0482 9.43848 15.0482 8.81379V4.59264H7.69629V8.64769Z" fill="#A7A7A7"/>
</svg>
