<svg width="14" height="12" viewBox="0 0 14 12" fill="none" xmlns="http://www.w3.org/2000/svg">
<g clip-path="url(#clip0_67_1258)">
<path d="M13.6573 3.26107H12.8382C12.6486 3.26107 12.4955 3.41289 12.4955 3.60087V3.87319L11.7323 1.60544C11.5038 0.923433 10.8622 0.465546 10.1378 0.465546H3.86215C3.13785 0.465546 2.49618 0.923433 2.26771 1.60544L1.50451 3.87319V3.60087C1.50451 3.41289 1.35139 3.26107 1.16181 3.26107H0.342708C0.153125 3.26107 0 3.41289 0 3.60087V3.94549C0 4.13346 0.153125 4.28529 0.342708 4.28529H1.30521C0.641667 4.44193 0.145833 5.02996 0.145833 5.73607V8.40868C0.145833 9.05213 0.559028 9.59919 1.13507 9.80885V10.7174C1.13507 11.0307 1.39028 11.2837 1.70625 11.2837H2.94583C3.26181 11.2837 3.51701 11.0307 3.51701 10.7174V9.90284H10.483V10.7174C10.483 11.0307 10.7382 11.2837 11.0542 11.2837H12.2938C12.6097 11.2837 12.8649 11.0307 12.8649 10.7174V9.80885C13.441 9.59919 13.8542 9.05213 13.8542 8.40868V5.73607C13.8542 5.02996 13.3608 4.43952 12.6948 4.28529H13.6573C13.8469 4.28529 14 4.13346 14 3.94549V3.60087C14 3.41289 13.8469 3.26107 13.6573 3.26107ZM3.18889 1.9115C3.28611 1.62472 3.5559 1.42952 3.86215 1.42952H10.1378C10.4441 1.42952 10.7139 1.62231 10.8111 1.9115L11.5962 4.24432H2.40625L3.19132 1.9115H3.18889Z" fill="#A7A7A7"/>
</g>
<defs>
<clipPath id="clip0_67_1258">
<rect width="14" height="10.8182" fill="white" transform="translate(0 0.465546)"/>
</clipPath>
</defs>
</svg>
