<svg width="32" height="50" viewBox="0 0 32 50" fill="none" xmlns="http://www.w3.org/2000/svg">
<path d="M29.7968 10H26.077C25.6229 10 25.2266 10.3095 25.1138 10.7492L24.4717 13.2628C24.2634 14.0814 23.5258 14.6541 22.6812 14.6541H3.71192C2.5954 14.6541 1.77681 15.707 2.0545 16.7888L5.40984 29.9267C5.60364 30.6846 6.28628 31.2139 7.06727 31.2139H21.6167C22.3977 31.2139 23.0804 30.6846 23.2742 29.9267L26.6295 16.7888L27.4915 13.4161C27.6043 12.9764 28.0006 12.6669 28.4547 12.6669H29.7997C30.3493 12.6669 30.7948 12.2215 30.7948 11.6719V10.995C30.7948 10.4455 30.3493 10 29.7997 10H29.7968Z" fill="#3B3B3B"/>
<path d="M9.63025 38.7937C11.0424 38.7937 12.1873 37.6489 12.1873 36.2367C12.1873 34.8245 11.0424 33.6797 9.63025 33.6797C8.21805 33.6797 7.07324 34.8245 7.07324 36.2367C7.07324 37.6489 8.21805 38.7937 9.63025 38.7937Z" fill="#3B3B3B"/>
<path d="M19.7889 38.7937C21.2011 38.7937 22.3459 37.6489 22.3459 36.2367C22.3459 34.8245 21.2011 33.6797 19.7889 33.6797C18.3767 33.6797 17.2319 34.8245 17.2319 36.2367C17.2319 37.6489 18.3767 38.7937 19.7889 38.7937Z" fill="#3B3B3B"/>
</svg>
