<svg width="24" height="21" viewBox="0 0 24 21" fill="none" xmlns="http://www.w3.org/2000/svg">
<path d="M20.4153 12.0969C18.4508 14.1382 15.2697 16.3833 13.1197 18.1053C12.4649 18.6296 11.5209 18.6316 10.866 18.1072C8.71673 16.3852 5.25576 13.9234 3.56782 12.0969C1.49894 9.85763 1.45573 6.34199 3.56848 4.14657C5.6819 1.95114 9.10764 1.95114 11.2204 4.14657C11.2895 4.2188 11.3567 4.29232 11.4212 4.36714C11.717 4.70896 12.2655 4.7109 12.5613 4.36907C12.6304 4.2891 12.7029 4.21042 12.7774 4.13302C14.8489 1.995 18.2274 1.9634 20.3342 4.06466C22.441 6.16591 22.5547 9.87439 20.4153 12.0975V12.0969Z" fill="#CACACA"/>
</svg>
