<svg width="20" height="20" viewBox="0 0 20 20" fill="none" xmlns="http://www.w3.org/2000/svg">
<path d="M8.35 19.9C3.6 19.05 0 14.95 0 10C0 4.50001 4.5 0 10 0C15.5 0 20 4.50001 20 10C20 14.95 16.4 19.05 11.65 19.9L11.1 19.45H8.9L8.35 19.9Z" fill="url(#paint0_linear_1_76)"/>
<path d="M13.8999 12.7999L14.3499 9.99991H11.6999V8.04991C11.6999 7.24991 11.9999 6.64991 13.1999 6.64991H14.4999V4.0999C13.7999 3.9999 12.9999 3.8999 12.2999 3.8999C9.9999 3.8999 8.3999 5.2999 8.3999 7.79991V9.99991H5.8999V12.7999H8.3999V19.8499C8.9499 19.9499 9.4999 19.9999 10.0499 19.9999C10.5999 19.9999 11.1499 19.9499 11.6999 19.8499V12.7999H13.8999Z" fill="white"/>
<defs>
<linearGradient id="paint0_linear_1_76" x1="10.0005" y1="19.3045" x2="10.0005" y2="-0.00368389" gradientUnits="userSpaceOnUse">
<stop stop-color="#0062E0"/>
<stop offset="1" stop-color="#19AFFF"/>
</linearGradient>
</defs>
</svg>
