<svg width="32" height="50" viewBox="0 0 32 50" fill="none" xmlns="http://www.w3.org/2000/svg">
<path d="M16.8485 5.00053C9.02429 5.08131 6.99608 10.1305 7.00901 20.7001C7.01159 22.6667 6.70142 28.4026 9.50765 29.1928C11.13 29.6497 10.9414 31.4506 10.2185 32.7819C9.56882 33.9794 8.46339 34.608 8.26264 36.7707C7.24595 47.7131 22.0629 47.8739 21.1151 33.7488C20.7343 28.0769 25.1457 23.2129 26.2124 18.582C27.2799 13.951 24.6718 4.92058 16.8485 5.00053ZM11.778 19.1239C12.0597 18.4835 12.8196 18.1864 13.4753 18.4616C13.6304 18.5264 14.1715 18.7216 14.6411 18.5121C15.2442 18.2428 15.575 17.4122 15.4105 16.58C15.2752 15.895 15.7344 15.2335 16.4358 15.1022C17.1363 14.971 17.8143 15.4186 17.9487 16.1037C18.3442 18.1107 17.4258 20.0454 15.7155 20.8095C15.1804 21.0485 14.6514 21.1318 14.1749 21.1318C13.4073 21.1318 12.7731 20.9155 12.456 20.7825C11.8004 20.5074 11.4962 19.7651 11.778 19.1247V19.1239ZM20.8971 22.5531C19.7469 24.0965 18.6759 24.9784 17.7316 25.756C16.6271 26.6657 15.8283 27.3237 15.2011 28.8149C14.7694 29.8399 14.8065 30.4584 14.872 30.8338C15.0193 31.6803 15.5242 32.309 15.9223 32.6877C16.4332 33.1741 16.4444 33.9735 15.9464 34.4725C15.6931 34.7267 15.3571 34.8537 15.021 34.8537C14.685 34.8537 14.3705 34.7342 14.1189 34.4953C13.446 33.8548 12.5879 32.7726 12.3242 31.2554C12.1381 30.1866 12.2975 29.0741 12.811 27.8548C13.6787 25.7922 14.8384 24.837 16.0653 23.8255C16.9381 23.106 17.841 22.3621 18.8078 21.0661C20.0442 19.4083 20.5852 16.3628 19.921 14.7993C19.3756 13.516 18.5019 12.6147 17.393 12.1889C16.3806 11.8001 14.1172 12.0854 13.4564 13.7162C13.1936 14.3642 12.4431 14.6823 11.7797 14.4256C11.1163 14.169 10.7906 13.436 11.0534 12.788C12.3001 9.7072 16.1368 8.99442 18.3382 9.83932C20.0907 10.5117 21.5003 11.928 22.3067 13.8282C23.4139 16.4335 22.4713 20.4417 20.8971 22.5523V22.5531Z" fill="#3B3B3B"/>
</svg>
