<svg width="20" height="20" viewBox="0 0 20 20" fill="none" xmlns="http://www.w3.org/2000/svg">
<path d="M10.2041 8.18188V12.0546H15.6958C15.4546 13.3001 14.731 14.3547 13.6457 15.0637L16.9574 17.5819C18.8869 15.8365 20.0001 13.2729 20.0001 10.2274C20.0001 9.51836 19.9352 8.83648 19.8145 8.18199L10.2041 8.18188Z" fill="#4285F4"/>
<path d="M4.48526 11.9033L3.73834 12.4636L1.09448 14.4818C2.77353 17.7454 6.21487 20 10.2038 20C12.9588 20 15.2686 19.1091 16.957 17.5818L13.6453 15.0636C12.7362 15.6636 11.5766 16.0273 10.2038 16.0273C7.55068 16.0273 5.29655 14.2728 4.48943 11.9091L4.48526 11.9033Z" fill="#34A853"/>
<path d="M1.09455 5.51831C0.39885 6.86371 0 8.38191 0 10.0001C0 11.6182 0.39885 13.1364 1.09455 14.4818C1.09455 14.4909 4.48982 11.9 4.48982 11.9C4.28574 11.3 4.16511 10.6637 4.16511 9.99996C4.16511 9.33624 4.28574 8.69992 4.48982 8.09992L1.09455 5.51831Z" fill="#FBBC05"/>
<path d="M10.204 3.98182C11.7068 3.98182 13.0426 4.49089 14.1094 5.47272L17.0315 2.60912C15.2596 0.990971 12.9591 0 10.204 0C6.21508 0 2.77353 2.24545 1.09448 5.51819L4.48965 8.10001C5.29666 5.73635 7.55089 3.98182 10.204 3.98182Z" fill="#EA4335"/>
</svg>
