<svg width="16" height="17" viewBox="0 0 16 17" fill="none" xmlns="http://www.w3.org/2000/svg">
<path d="M7.35743 10.0118L7.14743 3.17977H8.75743L8.54743 10.0118H7.35743ZM7.94543 13.3998C7.64676 13.3998 7.39943 13.3018 7.20343 13.1058C7.01676 12.9004 6.92343 12.6531 6.92343 12.3638C6.92343 12.0651 7.01676 11.8178 7.20343 11.6218C7.39943 11.4258 7.64676 11.3278 7.94543 11.3278C8.24409 11.3278 8.48676 11.4258 8.67343 11.6218C8.86943 11.8178 8.96743 12.0651 8.96743 12.3638C8.96743 12.6531 8.86943 12.9004 8.67343 13.1058C8.48676 13.3018 8.24409 13.3998 7.94543 13.3998Z" fill="#A6A6A6"/>
<circle cx="8" cy="8.48242" r="7.5" stroke="#A6A6A6"/>
</svg>
