<svg width="14" height="21" viewBox="0 0 14 21" fill="none" xmlns="http://www.w3.org/2000/svg">
<path d="M13.1412 11.1206C13.7053 10.0933 14.0171 8.91157 13.9993 7.65268C13.9458 3.95616 10.9619 0.900959 7.26834 0.764381C3.28085 0.615926 0 3.80473 0 7.75956C0 8.97689 0.311755 10.123 0.858068 11.1206L0.866975 11.1354C0.938234 11.2631 1.01246 11.3878 1.08966 11.5095L6.05695 19.8378C6.48153 20.5534 7.51775 20.5534 7.94233 19.8378L12.9096 11.5066C12.9868 11.3848 13.061 11.2631 13.1293 11.1384L13.1412 11.1206ZM6.69234 4.74594C8.6074 4.55591 10.2018 6.15329 10.0118 8.06538C9.87224 9.48164 8.72617 10.6277 7.30991 10.7673C5.39484 10.9573 3.80044 9.35991 3.99046 7.44781C4.13001 6.03155 5.27608 4.88548 6.69234 4.74594Z" fill="#DF2323"/>
</svg>
