<svg width="12" height="18" viewBox="0 0 12 18" fill="none" xmlns="http://www.w3.org/2000/svg">
<path d="M9.2892 0.12146H2.71232C1.2144 0.12146 0 1.28134 0 2.71201V14.5324C0 15.963 1.2144 17.1215 2.71232 17.1215H9.2892C10.7856 17.1215 12 15.963 12 14.5324V2.71201C12 1.28134 10.7856 0.12146 9.2892 0.12146ZM10.5112 8.80826C10.5066 8.82419 10.5006 8.84156 10.493 8.85749C10.4763 8.90238 10.4521 8.94582 10.4232 8.98637C10.399 9.02112 10.3717 9.05153 10.3399 9.08194L7.4638 11.8303C7.33039 11.9577 7.15603 12.0215 6.98016 12.0215C6.8043 12.0215 6.63146 11.9577 6.49804 11.8303C6.23121 11.5755 6.23121 11.1628 6.49804 10.9094L8.20973 9.27308H2.44093C2.06494 9.27308 1.75869 8.98202 1.75869 8.62146C1.75869 8.2609 2.06494 7.96984 2.44093 7.96984H8.20973L6.49804 6.335C6.23121 6.08015 6.23121 5.66746 6.49804 5.41405C6.76488 5.15919 7.19697 5.15919 7.4638 5.41405L10.3399 8.16098C10.3778 8.19718 10.4111 8.23773 10.4384 8.28117C10.4475 8.29275 10.4551 8.30579 10.4612 8.31882C10.4718 8.33764 10.4824 8.35647 10.49 8.37674C10.4975 8.39557 10.5051 8.41584 10.5112 8.43611C10.5491 8.55775 10.5491 8.68662 10.5112 8.80826Z" fill="#1B1B1B"/>
</svg>
