<svg width="14" height="16" viewBox="0 0 14 16" fill="none" xmlns="http://www.w3.org/2000/svg">
<path d="M13.5109 5.65576L8.05579 0.4273C7.46199 -0.142433 6.53801 -0.142433 5.94332 0.4273L0.489064 5.65576C0.176631 5.95471 0 6.37269 0 6.81067V13.9192C0 14.7924 0.691435 15.5011 1.5453 15.5011H12.4547C13.3077 15.5011 14 14.7933 14 13.9192V6.80976C14 6.37178 13.8225 5.9538 13.5109 5.65485V5.65576ZM7.09542 8.05372C8.11082 8.21001 10.0014 8.49988 10.0014 10.687C10.0014 11.9573 8.97356 13.0568 7.64306 13.3312V14.4707H6.35605V13.3485C4.90395 13.1213 3.99772 12.1109 3.99772 10.6461H5.28473C5.28473 11.8937 6.3596 12.08 6.99956 12.08C8.01052 12.08 8.71439 11.3458 8.71439 10.6861C8.71439 9.86015 8.32562 9.57392 6.9037 9.35584C5.88829 9.19955 3.99772 8.90968 3.99772 6.72253C3.99772 5.45222 5.02555 4.35273 6.35605 4.07831V2.83072H7.64306V4.06014C9.09516 4.28731 10.0014 5.29774 10.0014 6.76251H8.71439C8.71439 5.51491 7.63951 5.32864 6.99956 5.32864C5.98859 5.32864 5.28473 6.06284 5.28473 6.72253C5.28473 7.5485 5.67349 7.83473 7.09542 8.05281V8.05372Z" fill="#1B1B1B"/>
</svg>
