<svg width="32" height="50" viewBox="0 0 32 50" fill="none" xmlns="http://www.w3.org/2000/svg">
<path d="M29.5949 27.636C29.0115 24.4063 26.3057 23.8234 25.5097 23.6119C24.7138 23.3998 24.2893 22.0761 25.2442 21.1231C27.7149 18.6575 27.0481 14.2925 23.1219 14.2925C19.1956 14.2925 18.5289 18.6575 20.9995 21.1231C21.955 22.0761 21.5305 23.3998 20.7346 23.6119C20.3047 23.726 19.3171 23.9488 18.4086 24.6386C17.9329 24.9998 18.0401 25.746 18.5997 25.957C19.2504 26.2023 19.9987 26.5558 20.7268 27.0757C21.8806 27.9003 22.751 28.9644 23.3296 30.2525C23.5725 30.7937 24.1393 31.1163 24.731 31.0658C27.5095 30.8288 30.0063 29.9079 29.5955 27.6366L29.5949 27.636Z" fill="#3B3B3B"/>
<path d="M22.6563 31.1261C21.3799 27.6742 18.2966 26.792 16.9982 26.4521C16.9048 26.4278 16.8202 26.4058 16.7464 26.3862C15.5182 26.0594 14.8628 24.0162 16.3374 22.5445C20.1511 18.738 19.1218 12 13.0607 12C6.99959 12 5.97026 18.738 9.78456 22.5445C11.2592 24.0162 10.6037 26.0594 9.37497 26.3862C8.1468 26.7135 3.96934 27.6124 3.0686 32.5983C2.31371 36.7756 7.92831 37.9936 13.0607 37.9936C18.1931 37.9936 23.8082 36.7756 23.0534 32.5983C22.9563 32.0619 22.8218 31.5723 22.6563 31.1261Z" fill="#3B3B3B"/>
</svg>
