<svg width="29" height="33" viewBox="0 0 29 33" fill="none" xmlns="http://www.w3.org/2000/svg">
<path d="M14.0009 8C6.11314 8 7.55354 18.2206 5.12554 21.4852C4.86633 21.8363 5.02711 22.3383 5.43724 22.486C8.15397 23.4736 11.1299 23.7426 14.0009 23.7426C16.8718 23.7426 19.8477 23.4736 22.5645 22.486C22.9746 22.3383 23.1354 21.8363 22.8762 21.4852C20.4482 18.2206 21.8886 8 14.0009 8Z" fill="#1B1B1B"/>
<path d="M16.6853 24.5202C16.9708 24.5038 17.1873 24.7729 17.1086 25.0485C16.7903 26.1542 15.7699 26.9646 14.5624 26.9646C13.355 26.9646 12.3346 26.1542 12.0163 25.0485C11.9376 24.7729 12.1541 24.5038 12.4396 24.5202C13.1516 24.5596 13.8603 24.576 14.5624 24.576C15.2646 24.576 15.9733 24.5596 16.6853 24.5202Z" fill="#1B1B1B"/>
</svg>
