<svg width="14" height="19" viewBox="0 0 14 19" fill="none" xmlns="http://www.w3.org/2000/svg">
<path d="M13.6759 13.3343C12.7888 10.9282 10.6419 10.3118 9.73941 10.0756C9.67412 10.0583 9.61652 10.0429 9.56467 10.0295C8.71015 9.80099 8.25505 8.37808 9.28047 7.35074C11.9323 4.69695 11.2161 0 6.99921 0C2.78232 0 2.06607 4.69695 4.71986 7.35074C5.74528 8.37616 5.29018 9.80099 4.43566 10.0295C3.58115 10.258 0.673879 10.884 0.0478749 14.3597C-0.478276 17.2727 3.42945 18.1215 6.99921 18.1215C10.569 18.1215 14.4767 17.2727 13.9525 14.3597C13.8852 13.9852 13.7912 13.6434 13.6759 13.3323V13.3343Z" fill="#1B1B1B"/>
</svg>
