<svg width="32" height="50" viewBox="0 0 32 50" fill="none" xmlns="http://www.w3.org/2000/svg">
<path d="M16.3703 21.3721C10.5063 21.3721 8.09163 26.4348 7.87958 30.7064C7.56772 36.9807 11.7801 37.731 16.3703 37.731C20.9604 37.731 25.1728 36.981 24.8609 30.7064C24.6486 26.4348 22.2342 21.3721 16.3703 21.3721Z" fill="#3B3B3B"/>
<path d="M8.03582 26.2407C9.33108 24.696 9.33108 22.1917 8.03582 20.647C6.74056 19.1024 4.64053 19.1024 3.34527 20.647C2.05002 22.1917 2.05001 24.696 3.34527 26.2407C4.64053 27.7853 6.74056 27.7853 8.03582 26.2407Z" fill="#3B3B3B"/>
<path d="M14.5231 19.3906C15.8184 17.8459 15.8184 15.3416 14.5231 13.7969C13.2279 12.2523 11.1278 12.2523 9.83258 13.7969C8.53732 15.3416 8.53732 17.8459 9.83258 19.3906C11.1278 20.9352 13.2279 20.9352 14.5231 19.3906Z" fill="#3B3B3B"/>
<path d="M22.9074 19.3906C24.2027 17.8459 24.2027 15.3416 22.9074 13.7969C21.6121 12.2523 19.5121 12.2523 18.2169 13.7969C16.9216 15.3416 16.9216 17.8459 18.2169 19.3906C19.5121 20.9352 21.6121 20.9352 22.9074 19.3906Z" fill="#3B3B3B"/>
<path d="M29.3947 26.2407C30.69 24.696 30.69 22.1917 29.3947 20.647C28.0994 19.1024 25.9994 19.1024 24.7042 20.647C23.4089 22.1917 23.4089 24.696 24.7042 26.2407C25.9994 27.7853 28.0994 27.7853 29.3947 26.2407Z" fill="#3B3B3B"/>
</svg>
