<svg width="32" height="50" viewBox="0 0 32 50" fill="none" xmlns="http://www.w3.org/2000/svg">
<path d="M13.0883 8C12.3413 8 11.7359 8.60544 11.7359 9.35246V16.6159C11.7359 17.3126 11.1714 17.8752 10.4765 17.8752C9.78169 17.8752 9.21723 17.3108 9.21723 16.6159V9.35246C9.21723 8.60544 8.61179 8 7.86477 8H7.57975C6.83273 8 6.22729 8.60544 6.22729 9.35246V16.6159C6.22729 17.3126 5.66283 17.8752 4.96797 17.8752C4.27124 17.8752 3.70865 17.3108 3.70865 16.6159V9.35246C3.70492 8.60544 3.09948 8 2.35246 8C1.60544 8 1 8.60544 1 9.35246V18.7266C1 21.724 2.96163 24.2612 5.67028 25.1275V38.6186C5.67028 39.7512 6.58869 40.6696 7.72133 40.6696C8.85397 40.6696 9.77238 39.7512 9.77238 38.6186V25.1275C12.481 24.2612 14.4427 21.7221 14.4427 18.7266V9.35246C14.4427 8.60544 13.8372 8 13.0902 8H13.0883Z" fill="#3B3B3B"/>
<path d="M24.6438 8C19.5599 8 17.5107 14.1829 17.5107 17.9851C17.5107 21.2489 18.8502 24.101 22.5946 24.8443V38.6186C22.5946 39.7512 23.513 40.6696 24.6456 40.6696C25.7783 40.6696 26.6967 39.7512 26.6967 38.6186V24.8443C30.4392 24.101 31.7805 21.2489 31.7805 17.9851C31.7805 14.1829 29.7295 8 24.6475 8H24.6438Z" fill="#3B3B3B"/>
</svg>
