<svg width="32" height="50" viewBox="0 0 32 50" fill="none" xmlns="http://www.w3.org/2000/svg">
<path d="M10.7373 6.12679C11.2071 6.72029 11.9276 7.07983 12.6971 7.07983C12.8952 7.07983 13.0971 7.05644 13.2989 7.00595C17.0814 6.06769 22.2339 6.00859 26.2977 6.06277C26.3087 6.06277 26.3197 6.06277 26.3319 6.06277C27.702 6.06277 28.8201 4.95458 28.8384 3.57181C28.8568 2.17796 27.7485 1.03283 26.3637 1.01436C22.0002 0.95649 16.4342 1.02791 12.0989 2.10408C11.1141 2.34788 10.4132 3.147 10.2358 4.08773C7.88217 4.86346 4.59028 6.58607 4.59028 10.1446V26.6295C3.65446 27.0358 3 27.9704 3 29.0613V46.0018C3 47.4634 4.17803 48.6491 5.63009 48.6491C7.08214 48.6491 8.26017 47.4634 8.26017 46.0018V29.0613C8.26017 27.9716 7.60571 27.0358 6.66989 26.6295V10.1446C6.66989 7.94176 8.94766 6.73506 10.7373 6.12679Z" fill="#3B3B3B"/>
<path d="M29.363 13.2465L25.6136 10.0413C25.1757 9.66701 24.52 9.72119 24.1481 10.162C23.7762 10.6028 23.8301 11.2628 24.268 11.6371L28.0174 14.8422C28.2131 15.0097 28.4517 15.091 28.6902 15.091C28.985 15.091 29.2774 14.9654 29.4829 14.7216C29.8548 14.2808 29.801 13.6208 29.363 13.2465Z" fill="#3B3B3B"/>
<path d="M16.0806 10.8221C15.6426 10.4478 14.9869 10.5019 14.6151 10.9428L11.4308 14.7168C11.0589 15.1576 11.1128 15.8175 11.5507 16.1919C11.7464 16.3593 11.985 16.4406 12.2235 16.4406C12.5183 16.4406 12.8107 16.315 13.0162 16.0712L16.2005 12.2972C16.5723 11.8564 16.5185 11.1964 16.0806 10.8221Z" fill="#3B3B3B"/>
<path d="M21.3521 12.8889C21.3056 12.3126 20.8041 11.8829 20.2316 11.9309C19.6591 11.9777 19.2334 12.4825 19.2798 13.0588L19.6786 17.9939C19.7227 18.5406 20.1777 18.9556 20.7135 18.9556C20.7417 18.9556 20.7698 18.9556 20.7992 18.9519C21.3717 18.9051 21.7974 18.4003 21.7509 17.824L21.3521 12.8889Z" fill="#3B3B3B"/>
</svg>
