<svg width="17" height="17" viewBox="0 0 17 17" fill="none" xmlns="http://www.w3.org/2000/svg">
<path d="M12.043 11.178C11.9475 11.2735 11.7914 11.2735 11.6959 11.178L11.4157 10.898C11.2915 10.7739 11.2723 10.5798 11.3711 10.4334C13.0271 7.98314 12.6959 4.59413 10.3775 2.52254C8.05909 0.45095 4.56559 0.457315 2.25358 2.56709C-0.316388 4.91235 -0.386449 8.90279 2.04976 11.3371C4.13886 13.4246 7.36803 13.6697 9.72782 12.0786C9.87431 11.9799 10.0686 11.9959 10.1928 12.1231L10.473 12.4032C10.5685 12.4986 10.5685 12.6546 10.473 12.75C10.2819 12.941 10.2819 13.2496 10.473 13.4406L13.7277 16.6927C14.1066 17.0714 14.7244 17.0714 15.1034 16.6927L15.9887 15.8081C16.3677 15.4294 16.3677 14.8121 15.9887 14.4334L12.7341 11.1812C12.543 10.9903 12.2341 10.9903 12.043 11.1812V11.178ZM9.731 3.65858C11.0239 4.95054 11.4252 6.79301 10.9348 8.42865C10.8902 8.57503 10.6832 8.57821 10.6322 8.43501C10.18 7.0985 9.41891 5.83836 8.35207 4.77233C7.42217 3.84314 6.34896 3.14943 5.2057 2.68483C5.06557 2.62755 5.0815 2.42071 5.22799 2.38571C6.79481 2.0134 8.5113 2.43981 9.731 3.66176V3.65858Z" fill="#1B1B1B"/>
</svg>
