<svg width="14" height="16" viewBox="0 0 14 16" fill="none" xmlns="http://www.w3.org/2000/svg">
<path d="M13.4728 5.94594L8.13745 0.950565C7.4975 0.351439 6.5025 0.351439 5.86255 0.950565L0.526342 5.94594C0.189945 6.26014 0 6.70039 0 7.16105V13.9343C0 14.8529 0.74469 15.5985 1.66424 15.5985H12.3358C13.2544 15.5985 14 14.8538 14 13.9343V7.16105C14 6.70039 13.8092 6.26103 13.4737 5.94594H13.4728ZM11.3514 11.1792C10.3351 12.2674 8.69042 13.4638 7.57915 14.3816C7.24098 14.6612 6.75192 14.6621 6.41375 14.3825C5.30248 13.4647 3.51309 12.1529 2.6397 11.1792C1.56926 9.98537 1.54707 8.11166 2.6397 6.94093C3.73233 5.77108 5.50396 5.77108 6.59659 6.94093C6.63209 6.97909 6.66671 7.01815 6.70044 7.05809C6.8531 7.24005 7.13713 7.24093 7.2898 7.05898C7.3253 7.01637 7.36258 6.97466 7.40164 6.93294C8.47296 5.79327 10.2197 5.77641 11.3097 6.89655C12.444 8.06285 12.4583 9.99336 11.3514 11.1783V11.1792Z" fill="#1B1B1B"/>
</svg>
