<svg width="16" height="17" viewBox="0 0 16 17" fill="none" xmlns="http://www.w3.org/2000/svg">
<path d="M8 0.5C3.58214 0.5 0 4.08214 0 8.5C0 12.9179 3.58214 16.5 8 16.5C12.4179 16.5 16 12.9179 16 8.5C16 4.08214 12.419 0.5 8 0.5ZM10.9961 10.2309H7.49773C6.94491 10.2309 6.49582 9.78185 6.49582 9.22903V5.23057C6.49582 4.67775 6.94491 4.22866 7.49773 4.22866C8.05056 4.22866 8.49965 4.67775 8.49965 5.23057C8.49965 5.78339 8.49965 8.22711 8.49965 8.22711H10.9961C11.549 8.22711 11.9981 8.6762 11.9981 9.22903C11.9981 9.78185 11.549 10.2309 10.9961 10.2309Z" fill="#1B1B1B"/>
</svg>
