<svg width="32" height="50" viewBox="0 0 32 50" fill="none" xmlns="http://www.w3.org/2000/svg">
<path d="M21.337 6.49146C22.1616 4.53072 21.2162 2.28284 19.2252 1.47067C17.2342 0.658506 14.9517 1.58961 14.127 3.55035C13.3023 5.51109 14.2478 7.75898 16.2388 8.57114C18.2297 9.38331 20.5123 8.4522 21.337 6.49146Z" fill="#3B3B3B"/>
<path d="M30.3144 25.5802C30.2831 25.5521 27.1523 22.6898 26.0275 17.8398C25.0387 13.5792 23.7508 10.2708 17.0661 9.66276C13.7421 9.36139 9.92311 11.3544 7.33629 14.7418C4.29113 18.7319 3.57847 23.6167 5.3819 28.1452C5.72871 29.0171 6.57602 29.5489 7.4723 29.5489C7.74431 29.5489 8.02176 29.4993 8.29105 29.3962C9.44437 28.9502 10.0129 27.6684 9.56134 26.5325C7.82591 22.1741 9.93671 18.693 10.9255 17.3992C11.0588 17.225 11.1961 17.0576 11.3389 16.8942L10.9581 22.9858C10.8724 24.356 11.9306 25.5347 13.3219 25.6191L18.5064 25.9338C19.8977 26.0182 21.0946 24.9762 21.1803 23.6059L21.5162 18.2416C21.5611 18.4278 21.6073 18.622 21.6536 18.8256C23.1088 25.098 27.1427 28.7158 27.3128 28.8658C28.2362 29.6801 29.6588 29.6078 30.4858 28.6984C31.3127 27.7889 31.2392 26.3959 30.3158 25.5816L30.3144 25.5802Z" fill="#3B3B3B"/>
<path d="M23.1489 34.1769L20.7185 28.1483C20.3703 27.2844 19.5488 26.6923 18.6077 26.6267L14.0964 26.3133C12.8723 26.2276 11.772 27.0459 11.5191 28.2273L10.0774 34.9591C9.88427 35.8579 9.31305 36.6401 8.50654 37.1049L2.21629 40.732C1.04528 41.407 0.650869 42.8897 1.3377 44.0443C2.02316 45.1975 3.52874 45.5859 4.70111 44.9096L10.99 41.2825C12.9879 40.1306 14.4078 38.1898 14.8865 35.9583L15.7869 31.758C15.844 31.4901 16.0943 31.3039 16.3717 31.324C16.5853 31.3387 16.7716 31.4727 16.8505 31.6696L18.5764 35.953C19.1544 37.4317 19.1354 39.0523 18.5233 40.5176L16.1011 46.3213C15.5856 47.5576 16.184 48.972 17.4394 49.4796C17.7454 49.6028 18.0609 49.6618 18.3724 49.6618C19.3394 49.6618 20.256 49.0965 20.6464 48.1603L23.0686 42.3567C24.1621 39.7368 24.1934 36.8383 23.1557 34.197C23.1529 34.1903 23.1502 34.1836 23.1475 34.1769H23.1489Z" fill="#3B3B3B"/>
</svg>
