<svg width="94" height="116" viewBox="0 0 94 116" fill="none" xmlns="http://www.w3.org/2000/svg">
<path d="M65.7945 91.5396H67.5712C67.7575 91.5396 67.9294 91.4395 68.0261 91.2822L69.6846 88.5157C70.7199 86.7857 72.6184 85.7134 74.6351 85.7134H79.1736C81.1903 85.7134 83.0888 86.7857 84.1241 88.5157L85.7826 91.2787C85.8793 91.4395 86.0512 91.5396 86.2375 91.5396H88.0142C88.1933 91.5396 88.3724 91.5467 88.5479 91.5575C88.5264 90.6853 88.4333 89.7667 88.2578 88.798C87.8423 86.489 87.262 84.3837 86.5491 82.4678C81.0614 67.6199 67.8005 63.8274 62.216 62.3655C61.8112 62.2619 61.4494 62.1654 61.1306 62.0831C55.8506 60.6784 53.0315 51.889 59.3718 45.5624C75.7742 29.1917 71.3467 0.214233 45.2798 0.214233C19.2129 0.214233 14.7819 29.1917 31.1879 45.5624C37.5318 51.889 34.7127 60.6784 29.4255 62.0831C24.1455 63.4915 7.4732 67.6304 2.30188 88.798C-2.99998 110.5 -1.49998 107.596 45.2798 107.596C49.3455 107.596 53.4828 107.567 57.5055 107.41V99.8071C57.5055 95.2498 61.2237 91.5396 65.7945 91.5396Z" fill="#AAAAAA"/>
<path d="M88.0179 93.845H86.2412C85.2418 93.845 84.3141 93.3196 83.8018 92.4653L82.1433 89.6988C81.52 88.6586 80.3917 88.0188 79.1773 88.0188H74.6388C73.4245 88.0188 72.2961 88.655 71.6728 89.6988L70.0143 92.4653C69.5021 93.3232 68.5743 93.845 67.5749 93.845H65.7982C62.4955 93.845 59.8197 96.5151 59.8197 99.8107V109.826C59.8197 113.122 62.4955 115.792 65.7982 115.792H88.0215C91.3242 115.792 94 113.122 94 109.826V99.8107C94 96.5151 91.3242 93.845 88.0215 93.845H88.0179ZM76.9063 111.921C72.4358 111.921 68.8108 108.303 68.8108 103.843C68.8108 99.3818 72.4358 95.7645 76.9063 95.7645C81.3767 95.7645 85.0018 99.3818 85.0018 103.843C85.0018 108.303 81.3767 111.921 76.9063 111.921Z" fill="#787878"/>
<path d="M76.9063 109.408C79.9866 109.408 82.4836 106.916 82.4836 103.842C82.4836 100.769 79.9866 98.2771 76.9063 98.2771C73.826 98.2771 71.329 100.769 71.329 103.842C71.329 106.916 73.826 109.408 76.9063 109.408Z" fill="#AAAAAA"/>
</svg>
